# xmcd
#
# Track frame offsets:
#	150
#	12170
#	27798
#	46546
#	58904
#	72399
#	89107
#	104108
#	113919
#
# Disc length: 1728 seconds
#
# Revision: 0
# Processed by: cddbd v1.5.2PL0 Copyright (c) Steve Scherf et al.
# Submitted via: dBpowerAMP V4.0
#
DISCID=7a06be09
DTITLE=Annie Crane - Jump with a Child's Heart
DYEAR=2011
DGENRE=Singer Songwriter
TTITLE0=Jump with a Child's Heart
TTITLE1=You and Me and the Evergreen
TTITLE2=Copenhagen Heart
TTITLE3=Money Only Hates Me
TTITLE4=Hell's Gate
TTITLE5=The Island of Manhattan
TTITLE6=Ghost Body
TTITLE7=Salinger Said
TTITLE8=Lookin' Out
EXTD=
EXTT0=
EXTT1=
EXTT2=
EXTT3=
EXTT4=
EXTT5=
EXTT6=
EXTT7=
EXTT8=
PLAYORDER=
